<svg xmlns="http://www.w3.org/2000/svg" viewBox="0 0 100 100" width="512" height="512">
  <rect width="100" height="100" rx="20" fill="#0B1120"/>
  <g transform="translate(15, 10)">
    <!-- Shield Outline -->
    <path d="M35 5 C35 5 10 12 10 35 C10 60 35 80 35 80 C35 80 60 60 60 35 C60 12 35 5 35 5 Z" 
          fill="none" stroke="#C5A065" stroke-width="4" stroke-linejoin="round"/>
    
    <!-- House Roof (Integrated) -->
    <path d="M22 40 L35 28 L48 40" 
          fill="none" stroke="#C5A065" stroke-width="3.5" stroke-linecap="round" stroke-linejoin="round"/>
    
    <!-- "S" Curve (Ribbon style) -->
    <path d="M35 28 C25 35 20 45 25 55 C30 65 45 65 45 50 C45 40 35 35 25 45" 
          fill="none" stroke="#C5A065" stroke-width="3.5" stroke-linecap="round" stroke-linejoin="round"/>

    <!-- Window (2x2) -->
    <rect x="32" y="42" width="6" height="6" fill="none" stroke="#C5A065" stroke-width="2"/>
    <line x1="35" y1="42" x2="35" y2="48" stroke="#C5A065" stroke-width="1.5"/>
    <line x1="32" y1="45" x2="38" y2="45" stroke="#C5A065" stroke-width="1.5"/>

    <!-- Sparkle -->
    <path d="M52 18 L53.5 21.5 L57 23 L53.5 24.5 L52 28 L50.5 24.5 L47 23 L50.5 21.5 Z" fill="#C5A065"/>
  </g>
</svg>