<svg xmlns="http://www.w3.org/2000/svg" width="1200" height="630" viewBox="0 0 1200 630" fill="none">
  <rect width="1200" height="630" fill="#0B1120"/>
  <rect x="80" y="120" width="180" height="180" rx="28" fill="#0B1120" stroke="#C5A065" stroke-width="10"/>
  <circle cx="240" cy="140" r="14" fill="#C5A065"/>
  <path d="M130 260v-40c0-24 14-38 40-38 12 0 22 4 30 12v-12h24v110h-24v-52c-5-8-12-12-22-12-13 0-23 9-23 28v36h-25z" fill="#C5A065"/>
  <path d="M230 184h26v22h22v22h-22v40h-26v-40h-22v-22h22v-22z" fill="#C5A065"/>
  <text x="320" y="210" fill="#FFFFFF" font-family="'Inter', 'Segoe UI', sans-serif" font-size="64" font-weight="700">StrongHomes</text>
  <text x="320" y="276" fill="#C5A065" font-family="'Inter', 'Segoe UI', sans-serif" font-size="28" font-weight="600">Premium Home Cleaning • Lake & Porter Counties</text>
  <text x="320" y="328" fill="#E2E8F0" font-family="'Inter', 'Segoe UI', sans-serif" font-size="24" font-weight="500">Vetted Local Crews • Supplies Included • No Contracts</text>
  <text x="320" y="376" fill="#C5A065" font-family="'Inter', 'Segoe UI', sans-serif" font-size="22" font-weight="600">Call (219) 615-9477  |  Get your estimate today</text>
</svg>
